<?xml version="1.0" encoding="utf-8"?>
<!-- Generator: Adobe Illustrator 19.0.0, SVG Export Plug-In . SVG Version: 6.00 Build 0)  -->
<svg version="1.1" id="Layer_1" xmlns="http://www.w3.org/2000/svg" xmlns:xlink="http://www.w3.org/1999/xlink" x="0px" y="0px"
	 width="29.4px" height="29.3px" viewBox="-273.2 382.3 29.4 29.3" style="enable-background:new -273.2 382.3 29.4 29.3;"
	 xml:space="preserve">
<style type="text/css">
	.st0{display:none;fill:#FFC485;}
	.st1{fill:#FFFFFF;stroke:#FF8A0C;stroke-width:2.043;stroke-miterlimit:10;}
	.st2{fill:#22A86C;}
</style>
<g>
	<rect x="-282" y="353" class="st0" width="47" height="88"/>
	<path class="st1" d="M-248.3,383.4h-20.4c-1.9,0-3.4,1.5-3.4,3.4v20.4c0,1.9,1.5,3.4,3.4,3.4h20.4c1.9,0,3.4-1.5,3.4-3.4v-20.4
		C-244.9,384.9-246.4,383.4-248.3,383.4z"/>
	<g>
		<g>
			<path class="st2" d="M-260.8,406.4c-0.6,0-1.1-0.3-1.5-0.7l-4.8-6.4c-0.6-0.8-0.5-2,0.4-2.6c0.8-0.6,2-0.5,2.6,0.4l3.2,4.2
				l8-12.8c0.5-0.9,1.7-1.1,2.6-0.6c0.9,0.5,1.1,1.7,0.6,2.6l-9.4,15.1C-259.5,406.1-260.1,406.4-260.8,406.4
				C-260.7,406.4-260.8,406.4-260.8,406.4z"/>
		</g>
	</g>
</g>
</svg>
