<?xml version="1.0" encoding="utf-8"?>
<!-- Generator: Adobe Illustrator 19.0.0, SVG Export Plug-In . SVG Version: 6.00 Build 0)  -->
<svg version="1.1" id="Layer_1" xmlns="http://www.w3.org/2000/svg" xmlns:xlink="http://www.w3.org/1999/xlink" x="0px" y="0px"
	 width="86px" height="86px" viewBox="0 0 86 86" enable-background="new 0 0 86 86" xml:space="preserve">
<path id="XMLID_1_" fill="#3B5998" d="M75.3,0H10.8C4.8,0,0,4.8,0,10.8v64.5C0,81.2,4.8,86,10.8,86h32.6V55.2H33.1V41.7h10.3V35
	c0-10.4,7.7-18.5,17.4-18.5h9.5v15.2h-8.5c-2.2,0-2.9,1.3-2.9,3v7h11.4v13.4H58.9V86h16.3c6,0,10.8-4.8,10.8-10.8V10.8
	C86,4.8,81.2,0,75.3,0z"/>
</svg>
