<?xml version="1.0" encoding="utf-8"?>
<!-- Generator: Adobe Illustrator 19.1.0, SVG Export Plug-In . SVG Version: 6.00 Build 0)  -->
<svg version="1.1" id="Layer_1" xmlns="http://www.w3.org/2000/svg" xmlns:xlink="http://www.w3.org/1999/xlink" x="0px" y="0px"
	 width="86px" height="86px" viewBox="-262 354 86 86" style="enable-background:new -262 354 86 86;" xml:space="preserve">
<style type="text/css">
	.st0{fill:#FFFFFF;}
</style>
<path id="XMLID_1_" class="st0" d="M-186.7,354h-64.5c-6,0-10.8,4.8-10.8,10.8v64.5c0,5.9,4.8,10.7,10.8,10.7h32.6v-30.8h-10.3
	v-13.5h10.3V389c0-10.4,7.7-18.5,17.4-18.5h9.5v15.2h-8.5c-2.2,0-2.9,1.3-2.9,3v7h11.4v13.4h-11.4V440h16.3c6,0,10.8-4.8,10.8-10.8
	v-64.4C-176,358.8-180.8,354-186.7,354z"/>
</svg>
