<?xml version="1.0" encoding="utf-8"?>
<!-- Generator: Adobe Illustrator 19.0.0, SVG Export Plug-In . SVG Version: 6.00 Build 0)  -->
<svg version="1.1" id="Layer_1" xmlns="http://www.w3.org/2000/svg" xmlns:xlink="http://www.w3.org/1999/xlink" x="0px" y="0px"
	 width="86px" height="86px" viewBox="0 0 86 86" enable-background="new 0 0 86 86" xml:space="preserve">
<path fill="#DD4B39" d="M4.6,21.8c0,7.2,2.4,12.3,7.1,15.4c3.9,2.5,8.4,2.9,10.7,2.9c0.6,0,1,0,1.3,0c0,0-0.7,4.8,2.8,9.6h-0.2
	C20.2,49.6,0,50.9,0,67.5c0,16.9,18.5,17.7,22.2,17.7c0.3,0,0.5,0,0.5,0s0.3,0,0.8,0c2.4,0,8.6-0.3,14.3-3.1
	C45.2,78.5,49,72.2,49,63.5c0-8.5-5.7-13.5-9.9-17.2c-2.6-2.2-4.8-4.2-4.8-6.1c0-1.9,1.6-3.4,3.7-5.2c3.3-3,6.4-7.2,6.4-15.1
	c0-7-0.9-11.7-6.5-14.7c0.6-0.3,2.6-0.5,3.7-0.7c3-0.4,7.5-0.9,7.5-3.4V0.8H26.9C26.7,0.8,4.6,1.6,4.6,21.8z M40.2,65.1
	c0.4,6.7-5.4,11.7-14,12.4c-8.8,0.6-16.1-3.3-16.5-10.1c-0.2-3.2,1.2-6.4,4-8.9c2.8-2.6,6.7-4.1,10.9-4.5c0.5,0,1-0.1,1.5-0.1
	C34.3,53.9,39.8,58.7,40.2,65.1z M34.4,17.2c2.2,7.6-1.1,15.6-6.3,17c-0.6,0.2-1.2,0.3-1.8,0.3c-4.8,0-9.5-4.8-11.3-11.5
	c-1-3.7-0.9-7,0.2-10.1s3.1-5.2,5.6-5.9c0.6-0.2,1.2-0.3,1.8-0.3C28.4,6.8,32.1,9.1,34.4,17.2z M71.6,33.8V19.4h-9.1v14.4H48.1v9.1
	h14.4v14.4h9.1V42.9H86v-9.1C86,33.8,71.6,33.8,71.6,33.8z"/>
</svg>
