<?xml version="1.0" encoding="utf-8"?>
<!-- Generator: Adobe Illustrator 19.1.0, SVG Export Plug-In . SVG Version: 6.00 Build 0)  -->
<svg version="1.1" id="Layer_1" xmlns="http://www.w3.org/2000/svg" xmlns:xlink="http://www.w3.org/1999/xlink" x="0px" y="0px"
	 width="86px" height="86px" viewBox="-262 354 86 86" style="enable-background:new -262 354 86 86;" xml:space="preserve">
<style type="text/css">
	.st0{fill:#FFFFFF;}
</style>
<path class="st0" d="M-257.4,375.8c0,7.2,2.4,12.3,7.1,15.4c3.9,2.5,8.4,2.9,10.7,2.9c0.6,0,1,0,1.3,0c0,0-0.7,4.8,2.8,9.6h-0.2
	c-6.1-0.1-26.3,1.2-26.3,17.8c0,16.9,18.5,17.7,22.2,17.7c0.3,0,0.5,0,0.5,0s0.3,0,0.8,0c2.4,0,8.6-0.3,14.3-3.1
	c7.4-3.6,11.2-9.9,11.2-18.6c0-8.5-5.7-13.5-9.9-17.2c-2.6-2.2-4.8-4.2-4.8-6.1c0-1.9,1.6-3.4,3.7-5.2c3.3-3,6.4-7.2,6.4-15.1
	c0-7-0.9-11.7-6.5-14.7c0.6-0.3,2.6-0.5,3.7-0.7c3-0.4,7.5-0.9,7.5-3.4v-0.3h-22.2C-235.3,354.8-257.4,355.6-257.4,375.8z
	 M-221.8,419.1c0.4,6.7-5.4,11.7-14,12.4c-8.8,0.6-16.1-3.3-16.5-10.1c-0.2-3.2,1.2-6.4,4-8.9c2.8-2.6,6.7-4.1,10.9-4.5
	c0.5,0,1-0.1,1.5-0.1C-227.7,407.9-222.2,412.7-221.8,419.1z M-227.6,371.2c2.2,7.6-1.1,15.6-6.3,17c-0.6,0.2-1.2,0.3-1.8,0.3
	c-4.8,0-9.5-4.8-11.3-11.5c-1-3.7-0.9-7,0.2-10.1c1.1-3.1,3.1-5.2,5.6-5.9c0.6-0.2,1.2-0.3,1.8-0.3
	C-233.6,360.8-229.9,363.1-227.6,371.2z M-190.4,387.8v-14.4h-9.1v14.4h-14.4v9.1h14.4v14.4h9.1v-14.4h14.4v-9.1
	C-176,387.8-190.4,387.8-190.4,387.8z"/>
</svg>
