<?xml version="1.0" encoding="utf-8"?>
<!-- Generator: Adobe Illustrator 19.1.0, SVG Export Plug-In . SVG Version: 6.00 Build 0)  -->
<svg version="1.1" id="Layer_1" xmlns="http://www.w3.org/2000/svg" xmlns:xlink="http://www.w3.org/1999/xlink" x="0px" y="0px"
	 width="86px" height="86px" viewBox="-262 354 86 86" style="enable-background:new -262 354 86 86;" xml:space="preserve">
<style type="text/css">
	.st0{fill:#FFFFFF;}
</style>
<g>
	<path class="st0" d="M-259.3,374.4c2.3,1.3,34.8,18.7,36,19.3c1.2,0.6,2.8,1,4.3,1s3.1-0.3,4.3-1c1.2-0.6,33.6-18.1,36-19.3
		c2.3-1.3,4.6-5.2,0.3-5.2h-81.2C-263.9,369.2-261.7,373.1-259.3,374.4z M-177.7,384c-2.7,1.4-35.4,18.5-37,19.3
		c-1.6,0.9-2.8,1-4.3,1s-2.7-0.1-4.3-1c-1.7-0.8-34.4-17.9-37-19.3c-1.9-1-1.9,0.2-1.9,1.1s0,35.2,0,35.2c0,2,2.7,4.6,4.8,4.6h76.9
		c2.1,0,4.8-2.6,4.8-4.6c0,0,0-34.3,0-35.2C-175.8,384.1-175.8,383-177.7,384z"/>
</g>
</svg>
