<?xml version="1.0" encoding="utf-8"?>
<!-- Generator: Adobe Illustrator 19.0.0, SVG Export Plug-In . SVG Version: 6.00 Build 0)  -->
<svg version="1.1" id="Layer_1" xmlns="http://www.w3.org/2000/svg" xmlns:xlink="http://www.w3.org/1999/xlink" x="0px" y="0px"
	 width="86px" height="86px" viewBox="0 0 86 86" enable-background="new 0 0 86 86" xml:space="preserve">
<g>
	<path fill="#878787" d="M2.7,20.4c2.3,1.3,34.8,18.7,36,19.3s2.8,1,4.3,1s3.1-0.3,4.3-1c1.2-0.6,33.6-18.1,36-19.3
		c2.3-1.3,4.6-5.2,0.3-5.2H2.4C-1.9,15.2,0.3,19.1,2.7,20.4z M84.3,30c-2.7,1.4-35.4,18.5-37,19.3c-1.6,0.9-2.8,1-4.3,1
		s-2.7-0.1-4.3-1C37,48.5,4.3,31.4,1.7,30c-1.9-1-1.9,0.2-1.9,1.1s0,35.2,0,35.2c0,2,2.7,4.6,4.8,4.6h76.9c2.1,0,4.8-2.6,4.8-4.6
		c0,0,0-34.3,0-35.2C86.2,30.1,86.2,29,84.3,30z"/>
</g>
</svg>
