<?xml version="1.0" encoding="utf-8"?>
<!-- Generator: Adobe Illustrator 19.1.0, SVG Export Plug-In . SVG Version: 6.00 Build 0)  -->
<svg version="1.1" id="Layer_1" xmlns="http://www.w3.org/2000/svg" xmlns:xlink="http://www.w3.org/1999/xlink" x="0px" y="0px"
	 width="86px" height="86px" viewBox="-262 354 86 86" style="enable-background:new -262 354 86 86;" xml:space="preserve">
<style type="text/css">
	.st0{fill:#FFFFFF;}
</style>
<g>
	<path class="st0" d="M-256.3,381.6h74.6c2.5,0,2.1-2.7,0.8-3.1c-1.2-0.4-15.1-5.7-17.5-5.7h-3.9v-13.1h-33.4v13.2h-3.9
		c-2.4,0-16.3,5.2-17.5,5.7C-258.4,379-258.8,381.6-256.3,381.6z M-180.8,386.5h-76.4c-2.4,0-4.8,2.9-4.8,5.3v15.4
		c0,2.4,2.4,5.3,4.8,5.3h8.7l-3.8,21.8h66.7l-3.9-21.9h8.7c2.4,0,4.8-2.9,4.8-5.3v-15.4C-176,389.3-178.4,386.5-180.8,386.5z
		 M-243.6,425.5l6.2-28.5h36.9l6.1,28.5H-243.6z"/>
</g>
</svg>
