<?xml version="1.0" encoding="utf-8"?>
<!-- Generator: Adobe Illustrator 19.0.0, SVG Export Plug-In . SVG Version: 6.00 Build 0)  -->
<svg version="1.1" id="Layer_1" xmlns="http://www.w3.org/2000/svg" xmlns:xlink="http://www.w3.org/1999/xlink" x="0px" y="0px"
	 width="86px" height="86px" viewBox="0 0 86 86" enable-background="new 0 0 86 86" xml:space="preserve">
<g>
	<path fill="#878787" d="M5.7,27.6h74.6c2.5,0,2.1-2.7,0.8-3.1c-1.2-0.4-15.1-5.7-17.5-5.7h-3.9V5.7H26.3v13.2h-3.9
		c-2.4,0-16.3,5.2-17.5,5.7C3.6,25,3.2,27.6,5.7,27.6z M81.2,32.5H4.8c-2.4,0-4.8,2.9-4.8,5.3v15.4c0,2.4,2.4,5.3,4.8,5.3h8.7
		L9.7,80.3h66.7l-3.9-21.9h8.7c2.4,0,4.8-2.9,4.8-5.3V37.7C86,35.3,83.6,32.5,81.2,32.5z M18.4,71.5L24.6,43h36.9l6.1,28.5H18.4z"/>
</g>
</svg>
