<?xml version="1.0" encoding="utf-8"?>
<!-- Generator: Adobe Illustrator 18.1.1, SVG Export Plug-In . SVG Version: 6.00 Build 0)  -->
<svg version="1.1" id="Layer_1" xmlns="http://www.w3.org/2000/svg" xmlns:xlink="http://www.w3.org/1999/xlink" x="0px" y="0px"
	 width="30px" height="30px" viewBox="-290 382 30 30" enable-background="new -290 382 30 30" xml:space="preserve">
<path fill="#FFFFFF" d="M-275,411.9c8.2,0,14.9-6.7,14.9-14.9s-6.7-14.9-14.9-14.9s-14.9,6.7-14.9,14.9S-283.2,411.9-275,411.9z
	 M-284.5,398.3c0.7-0.7,8.1-7.8,8.1-7.8c0.4-0.4,0.9-0.5,1.4-0.5s1,0.2,1.4,0.6c0,0,7.4,7,8.1,7.8c0.7,0.7,0.8,2,0,2.8
	c-0.8,0.8-1.8,0.8-2.7,0l-6.7-6.5l-6.7,6.5c-0.9,0.8-2,0.8-2.7,0C-285.2,400.3-285.2,399-284.5,398.3z"/>
</svg>
