<?xml version="1.0" encoding="utf-8"?>
<!-- Generator: Adobe Illustrator 18.1.1, SVG Export Plug-In . SVG Version: 6.00 Build 0)  -->
<svg version="1.1" id="Layer_1" xmlns="http://www.w3.org/2000/svg" xmlns:xlink="http://www.w3.org/1999/xlink" x="0px" y="0px"
	 width="30px" height="30px" viewBox="0 0 30 30" enable-background="new 0 0 30 30" xml:space="preserve">
<path fill="#FFFFFF" d="M15,0.1C6.8,0.1,0.1,6.8,0.1,15c0,8.2,6.7,14.9,14.9,14.9c8.2,0,14.9-6.7,14.9-14.9
	C29.9,6.8,23.2,0.1,15,0.1z M24.5,13.7c-0.7,0.7-8.1,7.8-8.1,7.8C16,21.9,15.5,22,15,22c-0.5,0-1-0.2-1.4-0.6c0,0-7.4-7-8.1-7.8
	c-0.7-0.7-0.8-2,0-2.8c0.8-0.8,1.8-0.8,2.7,0l6.7,6.5l6.7-6.5c0.9-0.8,2-0.8,2.7,0C25.2,11.7,25.2,13,24.5,13.7z"/>
</svg>
