<?xml version="1.0" encoding="utf-8"?>
<!-- Generator: Adobe Illustrator 18.1.1, SVG Export Plug-In . SVG Version: 6.00 Build 0)  -->
<svg version="1.1" id="Layer_1" xmlns="http://www.w3.org/2000/svg" xmlns:xlink="http://www.w3.org/1999/xlink" x="0px" y="0px"
	 width="30px" height="30px" viewBox="-290 382 30 30" enable-background="new -290 382 30 30" xml:space="preserve">
<path fill="#4FC1E9" d="M-275,382.1c-8.2,0-14.9,6.7-14.9,14.9s6.7,14.9,14.9,14.9s14.9-6.7,14.9-14.9S-266.8,382.1-275,382.1z
	 M-265.5,395.7c-0.7,0.7-8.1,7.8-8.1,7.8c-0.4,0.4-0.9,0.5-1.4,0.5s-1-0.2-1.4-0.6c0,0-7.4-7-8.1-7.8c-0.7-0.7-0.8-2,0-2.8
	c0.8-0.8,1.8-0.8,2.7,0l6.7,6.5l6.7-6.5c0.9-0.8,2-0.8,2.7,0C-264.8,393.7-264.8,395-265.5,395.7z"/>
</svg>
