<?xml version="1.0" encoding="utf-8"?>
<!-- Generator: Adobe Illustrator 18.1.1, SVG Export Plug-In . SVG Version: 6.00 Build 0)  -->
<svg version="1.1" id="Layer_1" xmlns="http://www.w3.org/2000/svg" xmlns:xlink="http://www.w3.org/1999/xlink" x="0px" y="0px"
	 width="26px" height="26px" viewBox="0 0 26 26" enable-background="new 0 0 26 26" xml:space="preserve">
<g>
	<path fill="#FFFFFF" d="M25.5,22.1l-6.2-6.2c0.9-1.5,1.5-3.4,1.5-5.3C20.8,4.9,15.9,0,10.3,0C4.6,0,0.1,4.6,0.1,10.2
		s4.9,10.5,10.5,10.5c1.9,0,3.6-0.5,5.1-1.4l6.3,6.3c0.6,0.6,1.6,0.6,2.2,0l1.6-1.6C26.4,23.5,26.1,22.7,25.5,22.1z M3.2,10.2
		c0-3.9,3.2-7.1,7.1-7.1c3.9,0,7.4,3.5,7.4,7.4c0,3.9-3.2,7.1-7.1,7.1C6.7,17.6,3.2,14.2,3.2,10.2z"/>
</g>
</svg>
