<?xml version="1.0" encoding="utf-8"?>
<!-- Generator: Adobe Illustrator 18.1.1, SVG Export Plug-In . SVG Version: 6.00 Build 0)  -->
<svg version="1.1" id="Layer_1" xmlns="http://www.w3.org/2000/svg" xmlns:xlink="http://www.w3.org/1999/xlink" x="0px" y="0px"
	 width="121px" height="21px" viewBox="0 0 121 21" enable-background="new 0 0 121 21" xml:space="preserve">
<path fill="#FFFFFF" d="M85.6,8.2c-0.7,0-1.3,0.6-1.6,0.9c-0.7,0.6-2,1.9-3.4,3.9c-0.2,0.2-0.3,0.2-0.3,0c0.3-1.5,0.5-2.6,0.6-3.4
	C81,9,81,8.2,80.3,8.2l-2.6,2.9c0.6-0.2,0.7,0.1,0.5,1.2c-0.1,0.4-0.1,0.9-0.2,1.4c0,0,0,0,0,0c-1.5,1.3-3.1,2.5-4.6,3.7
	c0,0,0,0,0,0c-0.9,0.7-2.5,1.5-3.5,1.5c-1.5,0-2.4-0.9-2.4-3.3c0-0.3,0-0.6,0-0.8c0-0.3,0.1-0.4,0.3-0.4c1.4-0.4,2.9-0.9,4.3-1.6
	c1.2-0.5,2.7-1.5,2.8-2.7c0-1.1-0.9-1.8-1.9-1.8c-1,0-3.2,1-4.4,1.9c-0.2,0.2-0.6,0.4-0.9,0.8c0,0-0.4,0.3-1.2,0.4
	c-0.9,0.2-1.4,0-1.7-0.1c-0.4-0.1-0.8-0.4-0.8-0.4c0-0.1,0.1-0.3,0.1-0.3S64,10,64,9.8c0-0.9-0.5-1.6-1.4-1.6
	c-0.9,0-1.5,0.7-1.6,1.2c-0.1,0.2,0,0.3,0.2,0.5c0.2,0.2,0.5,0.6,0.5,1.5c0,1.8-1.4,4-4,6.3c-0.4,0.4-0.5,0.4-0.5-0.1
	c0-1.4,0-3-0.1-4.8c-0.1-2.3-0.6-4.5-1.8-4.5l-1.5,2c0.5,0,0.8,0.8,1,2.5c-1.9,1.9-4.1,3.5-6.3,5c-0.3,0.2-0.6,0.3-0.7,0.3
	c-0.3,0-0.3-1,0-2.4c0.8-4.4,1.9-9.5,3.4-14.5l-3.3,0.5c0.5,0,0.8,0.1,0.4,1.9c-0.3,1.1-0.5,2.3-0.8,3.4c-0.1,0.2-1,1.3-1,1.3
	s-0.7,0.8-1.1,1.1c-0.7,0.5-1.3,0.8-1.4,0.9c-0.4,0.2-1.2,0.2-1.2,0.2c-0.1,0-0.2,0-0.2,0c-0.3-1.3-1.2-2.4-3.1-2.4
	c-1.1,0-2.6,0.7-4,1.5c-3,1.9-4,4.9-4.1,7c0,0.2,0,0.5,0,0.7l-0.3,0.4l-0.6,0.6c-0.6,0.6-1.2,0.9-1.3,0.9c-0.1,0-0.2,0.1-0.3,0.1
	c0,0-0.1,0-0.1,0c-1.1,0-2.1-1.3-2.6-2.1c-0.8-1.1-1.4-2.4-1.7-2.9c-0.2-0.3-0.4-0.6-0.5-0.8c-0.2-0.2-0.2-0.3,0.3-0.6
	c1-0.6,3.2-2,3.7-2.5c0.5-0.4,1.1-0.9,1.1-1.4c0-0.4-0.2-1-0.9-1c-0.3,0-0.5,0.1-0.9,0.3c-0.4,0.2-0.8,0.5-1.1,0.7
	c-0.2,0.2-0.3,0.4-0.3,0.7c0,0.3-0.2,1.2-1.2,2c-0.9,0.8-2,1.4-2.9,1.8c-0.5,0.2-0.5,0.1-0.4-0.3c0.7-3,2.3-10.8,2.6-11.8L20.7,2
	c0.5-0.1,0.6,0.2,0.4,1.4c-0.5,2.9-2,9.9-2.9,13.2c-0.2,1-0.6,2.2-0.9,3.5c-0.1,0.4-0.1,0.7,0.2,0.7c0.2,0,1.3-0.5,1.5-0.6
	c0.3-0.2,0.6-0.5,0.8-1c0.3-0.9,0.6-2.1,0.8-2.8c0.1-0.5,0.2-1.1,0.4-1.7c0.1-0.4,0.1-0.5,0.4-0.5c0.4,0.1,0.7,0.3,1.3,1.5
	c0.6,1.2,1.4,2.6,2,3.5c0.9,1.2,1.7,1.6,2.5,1.6c0.6,0,1.4-0.2,2.3-0.9c0.8-0.5,1.5-1,2.1-1.6c0.4,1.5,1.6,2.3,3.1,2.3
	c1,0,2.7-0.7,4-1.5c2.7-1.7,4-4.9,4-7.1c0-0.2,0-0.4,0-0.6c1.6,0.1,3.3-1.1,4.5-2.5c-0.7,2.9-1.3,5.7-1.9,8.6
	c-0.4,1.9-0.2,3.2,0.4,3.2c0.3,0,1.9-1,3.6-2.5c2-1.5,4-2.9,5.8-4.6c0.2,2.2,0.1,5,0,6.5c0,0.3,0,0.6,0.4,0.6c0.2,0,0.7-0.3,1.2-0.8
	c0.4-0.3,0.8-0.7,1.4-1.3c2.7-2.8,5-5.3,5.9-7.2c0.9,0.6,1.9,0.7,3.1,0.5c-0.8,1.2-1.6,2.9-1.6,5.3c0,1.7,0.8,3.4,2.8,3.4
	c1.8,0,4.6-1.6,6.1-2.9c1.3-1,2.6-2.1,3.9-3.2c-0.3,1.6-0.7,3.4-1.3,5.6c-0.1,0.4-0.1,0.7,0.2,0.7c0.3,0,1.3-0.5,1.5-0.7
	c0.2-0.2,0.6-0.5,0.7-1c0.3-0.9,0.5-2.1,0.7-2.8c0.2-0.7,0.4-1.4,0.9-2.3c1.4-2.1,2.6-3.2,3.3-3.2c0.3,0,0.5,0.1,0.6,0.2
	c0.1,0.1,0.3,0.3,0.5,0.3c0.2,0,0.6-0.3,1.1-0.9c0.4-0.5,0.8-1,0.8-1.2C86.9,8.9,86.7,8.2,85.6,8.2 M67.8,13.1
	c0.2-1.2,0.8-2.2,1.3-2.6c0.5-0.5,1.2-0.9,1.9-0.9c1,0,1.5,0.8,1.4,1.5c0,0.3-0.3,0.8-0.7,1.1c-0.8,0.5-1.9,0.9-3.6,1.3
	C67.8,13.5,67.8,13.3,67.8,13.1 M40,12.6c0,1.8-0.5,4.7-1.9,6c-0.5,0.4-1.2,0.7-1.8,0.7c-1.4,0-2.5-0.9-2.5-3.3
	c0-2.9,0.9-4.8,1.9-5.7c0.6-0.5,1.1-0.7,1.8-0.7C39.6,9.5,40,11.1,40,12.6 M16.9,1.2c-0.6-0.5-2-0.8-3.6-0.8c-1.8,0-3.8,0.5-5.7,1.7
	c-2,1.3-2.8,2.7-2.8,4.5c0,2,1.6,3.3,4.3,4.5c2,0.9,4.6,1.9,4.6,4.4c0,2.5-1.8,4-5.1,4c-2.5,0-4.7-1-5.3-2.5
	c-0.2-0.5-0.4-0.9-0.3-1.2c0.1-0.2-0.3-0.3-0.6,0c-0.2,0.3-0.8,0.9-1.2,1.4c-0.4,0.3-0.6,0.6-0.6,1c0,0.6,0.5,1.3,1.3,1.8
	c1,0.7,3,1.1,5,1.1c1.9,0,3.7-0.6,5.5-1.5c2.3-1.2,4.4-2.8,4.4-5.1c0-2.4-2.8-4.1-4.8-5c-2.3-1-4.4-2.2-4.4-4.4
	c0-2.1,1.8-3.3,3.9-3.3c2.8,0,4,1.1,3.7,2.5c-0.1,0.5,0.5,0.6,0.8,0.2c0.5-0.5,0.8-0.8,1.2-1.2c0.3-0.3,0.5-0.6,0.5-0.9
	C17.5,2,17.4,1.5,16.9,1.2 M120.7,8.6c-0.2,0-0.9,0-1.6,0H117c-0.2,0-0.2,0-0.2-0.2c0.2-0.8,0.7-2,1.2-2.8c0.2-0.2-0.1-0.2-0.4-0.1
	c-0.5,0.3-1.5,0.9-1.9,1.2c-0.2,0.3-0.5,0.6-0.9,1.5c-0.1,0.3-0.2,0.3-0.4,0.4c-0.2,0-0.5,0.1-0.9,0.2c-0.5,0.1-1.6,0.5-1.9,0.7
	c-0.3,0.2-0.3,0.4,0.1,0.4h2.1c0.4,0,0.4,0.1,0.3,0.3c-0.3,1-0.6,2.2-0.9,3.4c-0.5,0.5-1.2,1-1.7,1.5c-0.9,0.7-1.8,1.5-2.7,2.2
	c0,0,0,0,0,0l-0.4,0.3c-0.9,0.6-2.2,1.2-3.1,1.2c-1.5,0-2.4-0.9-2.4-3.3c0-0.3,0-0.6,0-0.8c0-0.3,0.1-0.4,0.3-0.4
	c1.4-0.4,2.9-0.9,4.3-1.6c1.2-0.5,2.7-1.5,2.8-2.7c0-1.1-0.9-1.8-1.9-1.8c-0.9,0-3.2,1-4.4,1.9c-0.9,0.6-3.4,2.8-3.5,7.1
	c0,0-0.1,0.2-0.9,1c-0.6,0.5-1.6,1.1-1.6,1.1c0,0-0.1,0-0.1,0c0,0-0.1,0-0.1,0c-1.1,0-2.1-1.3-2.6-2.1c-0.8-1.1-1.4-2.4-1.7-2.9
	c-0.2-0.3-0.4-0.6-0.5-0.8c-0.2-0.2-0.2-0.3,0.3-0.6c1-0.6,3.2-2,3.7-2.5c0.5-0.4,1.1-0.9,1.1-1.4c0-0.4-0.2-1-0.9-1
	c-0.3,0-0.5,0.1-0.9,0.3c-0.4,0.2-0.8,0.5-1.1,0.7c-0.2,0.2-0.3,0.4-0.3,0.7c0,0.3-0.2,1.2-1.2,2c-0.9,0.8-2,1.4-2.9,1.8
	c-0.5,0.2-0.5,0.1-0.4-0.3c0.7-3,2.3-10.8,2.6-11.8L89.8,2c0.5-0.1,0.6,0.2,0.4,1.4c-0.5,2.9-2,9.9-2.9,13.2c-0.2,1-0.6,2.2-0.9,3.5
	c-0.1,0.4-0.1,0.7,0.2,0.7c0.2,0,1.3-0.5,1.5-0.6c0.3-0.2,0.6-0.5,0.8-1c0.3-0.9,0.6-2.1,0.8-2.8c0.1-0.5,0.2-1.1,0.4-1.7
	c0.1-0.4,0.1-0.5,0.4-0.5c0.4,0.1,0.7,0.3,1.3,1.5c0.6,1.2,1.4,2.6,2,3.5c0.9,1.2,1.7,1.6,2.5,1.6c0.6,0,1.5-0.2,2.4-1
	c0.7-0.5,1.3-1,1.9-1.6c0.3,1.3,1.1,2.4,2.7,2.4c1.8,0,4.8-1.7,6.3-3c0.8-0.6,1.6-1.3,2.4-2c0.3-0.3,0.7-0.6,1.1-0.9
	c-0.3,1.1-0.5,2.1-0.6,2.9c-0.3,1.6-0.2,3,0.7,3c0.7,0,3.2-1.7,4.9-3.5c0.1-0.1-0.1-0.3-0.3-0.2c-0.6,0.4-1.9,1.4-2.5,1.4
	c-0.4,0-0.4-0.7-0.2-2.2c0.2-1.3,0.8-4.1,1.4-5.9c0.1-0.2,0.2-0.2,0.4-0.2c0.3,0,0.8,0,1.2-0.1c0.3,0,0.9-0.1,1.4-0.2
	c0.8-0.2,1.4-0.7,1.6-0.8C121.1,8.7,121,8.6,120.7,8.6 M103.1,13.1c0.2-1.2,0.8-2.2,1.3-2.6c0.5-0.5,1.2-0.9,1.9-0.9
	c1,0,1.5,0.8,1.4,1.5c0,0.3-0.2,0.8-0.7,1.1c-0.8,0.5-1.9,0.9-3.6,1.3C103.1,13.5,103.1,13.3,103.1,13.1"/>
</svg>
