<?xml version="1.0" encoding="utf-8"?>
<!-- Generator: Adobe Illustrator 19.0.0, SVG Export Plug-In . SVG Version: 6.00 Build 0)  -->
<svg version="1.1" id="Layer_1" xmlns="http://www.w3.org/2000/svg" xmlns:xlink="http://www.w3.org/1999/xlink" x="0px" y="0px"
	 width="86px" height="86px" viewBox="0 0 86 86" enable-background="new 0 0 86 86" xml:space="preserve">
<path id="XMLID_1_" fill="#4099FF" d="M86,16.3c-3.2,1.4-6.6,2.4-10.1,2.8c3.6-2.2,6.4-5.6,7.8-9.8c-3.4,2-7.2,3.5-11.2,4.3
	C69.3,10.2,64.7,8,59.6,8C49.9,8,42,15.9,42,25.6c0,1.4,0.2,2.7,0.5,4C27.7,29,14.7,22,6,11.3c-1.5,2.6-2.4,5.6-2.4,8.9
	c0,6.1,3.1,11.5,7.8,14.7c-2.9-0.1-5.6-0.9-8-2.2c0,0.1,0,0.1,0,0.2c0,8.5,6.1,15.7,14.2,17.3c-1.5,0.4-3,0.6-4.6,0.6
	c-1.1,0-2.2-0.1-3.3-0.3c2.2,7,8.8,12.1,16.5,12.3c-6,4.7-13.6,7.6-21.9,7.6c-1.4,0-2.8-0.1-4.2-0.2c7.8,5,17.1,7.9,27,7.9
	c32.5,0,50.2-26.9,50.2-50.2c0-0.8,0-1.5-0.1-2.3C80.6,23,83.6,19.9,86,16.3z"/>
</svg>
