<?xml version="1.0" encoding="utf-8"?>
<!-- Generator: Adobe Illustrator 18.1.1, SVG Export Plug-In . SVG Version: 6.00 Build 0)  -->
<svg version="1.1" xmlns="http://www.w3.org/2000/svg" xmlns:xlink="http://www.w3.org/1999/xlink" x="0px" y="0px"
	 viewBox="0 0 595.3 841.9" enable-background="new 0 0 595.3 841.9" xml:space="preserve">
<g id="BKG">
	<rect x="29" y="185.4" fill="#D1D3D4" width="530" height="442.6"/>
</g>
<g id="Layer_1">
	<g>
		<path d="M335.4,128.9L316.5,110c2.8-4.7,4.5-10.2,4.5-16.1c0-17.1-14.8-31.9-31.9-31.9C272,62.1,258.1,76,258.1,93
			s14.8,31.9,31.9,31.9c5.7,0,11-1.5,15.6-4.2l19,19c1.9,1.9,4.9,1.9,6.7,0l4.7-4.7C337.9,133.1,337.2,130.8,335.4,128.9z M267.7,93
			c0-11.8,9.6-21.4,21.4-21.4c11.8,0,22.4,10.5,22.4,22.4c0,11.8-9.6,21.4-21.4,21.4C278.2,115.4,267.7,104.9,267.7,93z"/>
	</g>
	<path d="M262.8,241.3c-2,2.1-23.5,22.5-23.5,22.5c-1.1,1.1-2.5,1.7-3.9,1.7c-1.4,0-2.9-0.6-3.9-1.7c0,0-21.4-20.4-23.5-22.5
		c-2-2.1-2.2-5.8,0-8.1c2.2-2.2,5.2-2.4,7.9,0l19.5,18.7l19.5-18.7c2.7-2.4,5.7-2.2,7.9,0C265,235.4,264.8,239.2,262.8,241.3z"/>
	<path fill="#FFFFFF" d="M388.1,202c-23.8,0-43.1,19.3-43.1,43.1c0,23.8,19.3,43.1,43.1,43.1c23.8,0,43.1-19.3,43.1-43.1
		C431.2,221.3,411.9,202,388.1,202z M415.5,241.3c-2,2.1-23.5,22.5-23.5,22.5c-1.1,1.1-2.5,1.7-3.9,1.7c-1.4,0-2.9-0.6-3.9-1.7
		c0,0-21.4-20.4-23.5-22.5c-2-2.1-2.2-5.8,0-8.1c2.2-2.2,5.2-2.4,7.9,0l19.5,18.7l19.5-18.7c2.7-2.4,5.7-2.2,7.9,0
		C417.7,235.4,417.6,239.2,415.5,241.3z"/>
	<g>
		<g>
			<path fill="#FFFFFF" d="M254.1,441.1c0-3.8,2-6.1,4.8-6.1c2.8,0,4.8,2.3,4.8,6.1c0,3.8-2,6.1-4.8,6.1
				C256.1,447.2,254.1,444.9,254.1,441.1z M262.2,441.1c0-3.1-1.3-4.9-3.3-4.9c-2,0-3.3,1.8-3.3,4.9c0,3.1,1.3,4.9,3.3,4.9
				C260.9,446,262.2,444.2,262.2,441.1z M256.9,432h1.3v1.6h-1.3V432z M259.6,432h1.3v1.6h-1.3V432z"/>
			<path fill="#FFFFFF" d="M265.7,435.2h4c2.6,0,4,1.3,4,3.6c0,2-1.5,3.4-4.1,3.4h-2.5v4.8h-1.4V435.2z M269.5,441
				c1.8,0,2.7-0.8,2.7-2.3c0-1.3-0.9-2.2-2.6-2.2h-2.4v4.6H269.5z"/>
			<path fill="#FFFFFF" d="M275.4,435.2h4c2.6,0,4,1.3,4,3.6c0,2-1.5,3.4-4.1,3.4h-2.5v4.8h-1.4V435.2z M279.1,441
				c1.8,0,2.7-0.8,2.7-2.3c0-1.3-0.9-2.2-2.6-2.2h-2.4v4.6H279.1z"/>
			<path fill="#FFFFFF" d="M285,435.2h7.5v1.2h-6.1v3.8h4.8v1.1h-4.8v4.4h6.2v1.2H285V435.2z"/>
			<path fill="#FFFFFF" d="M294.2,435.2h1.9l5.6,9.7v-9.7h1.2V447h-1.4l-6-10.5V447h-1.2V435.2z"/>
			<path fill="#FFFFFF" d="M311.1,443.5c0.5,1.6,1.7,2.5,3.4,2.5c1.7,0,2.8-0.9,2.8-2c0-1.4-1-1.8-3-2.3c-1.1-0.3-2.2-0.5-3.2-1.3
				c-0.5-0.5-0.9-1.2-0.9-2c0-1.9,1.6-3.4,3.9-3.4c2.2,0,3.7,1.1,4.3,3l-1.4,0.3c-0.4-1.3-1.4-2.1-2.9-2.1c-1.5,0-2.4,0.8-2.4,2
				c0,0.5,0.3,1,0.7,1.3c0.7,0.5,1.6,0.6,2.5,0.9c2.5,0.7,3.8,1.5,3.8,3.5c0,2-1.7,3.4-4.3,3.4c-2.5,0-4.1-1.2-4.8-3.5L311.1,443.5z
				"/>
			<path fill="#FFFFFF" d="M320.9,435.2h1.4v6.7l5.3-6.7h1.5l-3.1,3.9l4.1,7.9h-1.5l-3.6-6.9l-2.8,3.5v3.4h-1.4V435.2z"/>
			<path fill="#FFFFFF" d="M329.7,441.1c0-3.8,2-6.1,4.8-6.1s4.8,2.3,4.8,6.1c0,3.8-2,6.1-4.8,6.1S329.7,444.9,329.7,441.1z
				 M337.8,441.1c0-3.1-1.3-4.9-3.3-4.9c-2,0-3.3,1.8-3.3,4.9c0,3.1,1.3,4.9,3.3,4.9S337.8,444.2,337.8,441.1z"/>
			<path fill="#FFFFFF" d="M341.4,435.2h1.4v10.5h5.4v1.3h-6.8V435.2z"/>
			<path fill="#FFFFFF" d="M349.3,435.2h1.5V447h-1.5V435.2z"/>
			<path fill="#FFFFFF" d="M353.5,435.2h1.9l5.6,9.7v-9.7h1.2V447h-1.4l-6-10.5V447h-1.2V435.2z"/>
			<path fill="#FFFFFF" d="M364.9,435.2h7.5v1.2h-6.1v3.8h4.8v1.1h-4.8v5.7h-1.4V435.2z"/>
			<path fill="#FFFFFF" d="M372.7,441.1c0-3.8,2-6.1,4.8-6.1c2.8,0,4.8,2.3,4.8,6.1c0,3.8-2,6.1-4.8,6.1
				C374.7,447.2,372.7,444.9,372.7,441.1z M380.8,441.1c0-3.1-1.3-4.9-3.3-4.9c-2,0-3.3,1.8-3.3,4.9c0,3.1,1.3,4.9,3.3,4.9
				C379.5,446,380.8,444.2,380.8,441.1z"/>
			<path fill="#FFFFFF" d="M384.3,435.2h4.1c2.8,0,4.3,1.2,4.3,3.3c0,1.4-0.7,2.4-2.2,3l2.4,5.5h-1.4l-2.3-5.2h-3.4v5.2h-1.4V435.2z
				 M385.8,436.4v4.2h2.5c1.9,0,2.9-0.7,2.9-2.1c0-1.3-1-2.1-2.8-2.1H385.8z"/>
			<path fill="#FFFFFF" d="M394.6,435.2h2.1l3.6,9.9l3.6-9.9h2.1V447h-1.4v-10.5l-3.9,10.5h-1l-3.8-10.6V447h-1.2V435.2z"/>
			<path fill="#FFFFFF" d="M411.2,435.2h1.7l3.9,11.8h-1.4l-1.1-3.5h-4.5l-1.1,3.5h-1.3L411.2,435.2z M413.8,442.4l-1.9-5.8
				l-1.8,5.8H413.8z"/>
			<path fill="#FFFFFF" d="M420.7,447h-1.5v-10.6H416v-1.2h8.1v1.2h-3.3V447z"/>
			<path fill="#FFFFFF" d="M425.3,435.2h1.5V447h-1.5V435.2z"/>
			<path fill="#FFFFFF" d="M428.7,441.1c0-3.8,2-6.1,4.8-6.1c2.8,0,4.8,2.3,4.8,6.1c0,3.8-2,6.1-4.8,6.1
				C430.7,447.2,428.7,444.9,428.7,441.1z M436.8,441.1c0-3.1-1.3-4.9-3.3-4.9c-2,0-3.3,1.8-3.3,4.9c0,3.1,1.3,4.9,3.3,4.9
				C435.5,446,436.8,444.2,436.8,441.1z"/>
			<path fill="#FFFFFF" d="M440.4,435.2h1.9l5.6,9.7v-9.7h1.2V447h-1.4l-6-10.5V447h-1.2V435.2z"/>
		</g>
		<g>
			<g id="Välja_26_">
				<g>
					<polygon fill="#FFFFFF" points="160,357.4 153.4,398.3 147.4,357.4 134.5,357.4 146.9,424.9 159.4,424.9 172.7,357.4 					"/>
				</g>
			</g>
			<g>
				<circle fill="#FFFFFF" cx="183" cy="364.1" r="6.7"/>
				<circle fill="#FFFFFF" cx="199.1" cy="364.1" r="6.7"/>
				<path fill="#FFFFFF" d="M192.3,415c-0.2,0.3-0.6,0.5-1.1,0.9c-0.5,0.3-1,0.5-1.6,0.5c-0.9,0-1.6-0.4-2-1.1
					c-0.4-0.7-0.6-1.6-0.6-2.6c0-4,2.1-7.7,6.2-11v12C192.8,414.4,192.5,414.8,192.3,415z M207.4,424.9c-1.1-4.6-1.6-9-1.6-13v-23.2
					c0-3.8-1.4-7-4.2-9.7c-2.8-2.7-6.1-4.1-9.9-4.1c-5.4,0-9.5,1.5-12.3,4.5c-2.8,3-4.2,7.3-4.2,13h12.3v-2.8c0-0.8,0-1.4,0.1-1.9
					c0-0.5,0.2-1,0.3-1.6c0.2-0.6,0.5-1,0.9-1.3c0.4-0.3,1-0.4,1.7-0.4c1,0,1.7,0.4,2.2,1.3c0.4,0.9,0.6,2.1,0.6,3.9v4.1
					c-1.7,0.7-3.1,1.3-4.2,1.8c-1.1,0.5-2.4,1.2-3.8,1.9c-1.4,0.8-2.6,1.5-3.5,2.2c-0.9,0.7-1.9,1.6-2.8,2.6c-1,1-1.7,2.1-2.2,3.2
					c-0.5,1.1-1,2.4-1.3,3.8c-0.4,1.5-0.5,3-0.5,4.7c0,1.5,0.2,2.9,0.5,4.3c0.4,1.4,0.9,2.6,1.7,3.8c0.8,1.2,1.8,2.1,3.2,2.8
					c1.3,0.7,2.9,1,4.7,1c2.4,0,4.5-0.5,6.1-1.4c1.6-0.9,2.8-2.5,3.6-4.8l1.2,5.1H207.4z"/>
			</g>
			<rect x="212.3" y="357.4" fill="#FFFFFF" width="12.6" height="67.5"/>
			<g>
				<circle fill="#FFFF33" cx="239.6" cy="364.1" r="6.7"/>
				<path fill="#FFFFFF" d="M234.3,436.5c3.9,0,6.8-1.1,8.9-3.4c2.1-2.2,3.1-5.3,3.1-9.3v-48h-12.6v46.9c0,2.8-1,4.2-2.8,4.2
					c-0.8,0-1.9-0.2-3.3-0.6v9.1C230.2,436.2,232.5,436.5,234.3,436.5L234.3,436.5z"/>
			</g>
			<path fill="#FFFFFF" d="M269.5,415c-0.2,0.3-0.6,0.5-1.1,0.9c-0.5,0.3-1,0.5-1.6,0.5c-0.9,0-1.6-0.4-2-1.1
				c-0.4-0.7-0.6-1.6-0.6-2.6c0-4,2.1-7.7,6.2-11v12C270,414.4,269.7,414.8,269.5,415z M284.6,424.9c-1.1-4.6-1.6-9-1.6-13v-23.2
				c0-3.8-1.4-7-4.2-9.7c-2.8-2.7-6.1-4.1-9.9-4.1c-5.4,0-9.5,1.5-12.3,4.5c-2.8,3-4.2,7.3-4.2,13h12.3v-2.8c0-0.8,0-1.4,0.1-1.9
				c0-0.5,0.2-1,0.3-1.6c0.2-0.6,0.5-1,0.9-1.3c0.4-0.3,1-0.4,1.7-0.4c1,0,1.7,0.4,2.2,1.3c0.4,0.9,0.6,2.1,0.6,3.9v4.1
				c-1.7,0.7-3.1,1.3-4.2,1.8c-1.1,0.5-2.4,1.2-3.8,1.9c-1.4,0.8-2.6,1.5-3.5,2.2c-0.9,0.7-1.9,1.6-2.8,2.6c-1,1-1.7,2.1-2.2,3.2
				c-0.5,1.1-1,2.4-1.3,3.8c-0.4,1.5-0.5,3-0.5,4.7c0,1.5,0.2,2.9,0.5,4.3c0.4,1.4,0.9,2.6,1.7,3.8c0.8,1.2,1.8,2.1,3.2,2.8
				c1.4,0.7,2.9,1,4.7,1c2.4,0,4.5-0.5,6.1-1.4c1.6-0.9,2.8-2.5,3.6-4.8l1.2,5.1H284.6z"/>
			<path fill="#FFFF33" d="M292,412.5c0.8,2.4,1.9,4.6,3.4,6.6c1.5,2,3.4,3.5,5.9,4.7c2.4,1.1,5.2,1.7,8.3,1.7
				c4.8,0,8.9-1.5,12.3-4.5c3.4-3,5.1-6.9,5.1-11.6c0-2.5-0.3-4.9-0.9-7c-0.6-2.2-1.5-4.2-2.6-6.1c-1.2-1.9-2.4-3.6-3.7-5
				c-1.3-1.5-3-3.1-4.9-4.8c-0.5-0.5-1.4-1.2-2.7-2.2c-1.3-1-2.2-1.9-3-2.6c-0.8-0.7-1.6-1.6-2.5-2.6c-0.9-1.1-1.6-2.2-2-3.4
				c-0.4-1.2-0.7-2.5-0.7-3.9c0-1.6,0.4-3,1.1-4.2c0.7-1.2,1.9-1.8,3.4-1.8c0.8,0,1.6,0.2,2.2,0.7c0.6,0.5,1,1.1,1.3,2
				c0.3,0.8,0.5,1.6,0.6,2.5c0.1,0.8,0.2,1.7,0.2,2.6c0,0.4,0,0.9-0.1,1.4c0,0.6-0.1,1-0.1,1.3l14.1-1.9c0-0.4,0-0.8,0-1.1l0-0.5
				c0-4.8-1.7-8.9-5-12.3c-3.4-3.4-7.4-5.1-12.2-5.1c-5.8,0-10.4,1.6-13.8,4.8c-3.5,3.2-5.2,7.5-5.2,13c0,1.9,0.2,3.7,0.7,5.3
				c0.4,1.7,1,3.1,1.6,4.3c0.6,1.2,1.5,2.4,2.5,3.7c1.1,1.3,2,2.3,2.8,3c0.8,0.8,1.9,1.7,3.2,2.8l4.2,3.6c5.3,4.7,8,9.4,8,14.1
				c0,3.4-1.4,5.2-4,5.2c-0.9,0-1.7-0.3-2.3-0.8c-0.7-0.5-1.2-1.2-1.5-2c-0.4-0.8-0.7-1.8-0.9-3c-0.2-1.2-0.3-2.4-0.4-3.4
				c-0.1-1-0.1-2.3-0.1-3.6l-13.8,2.7C290.7,407.5,291.2,410.1,292,412.5z"/>
			<polygon fill="#FFFF33" points="344.7,424.9 344.7,405.9 346.4,403 352.8,424.9 365.9,424.9 353.9,396.6 365.9,375.9 
				352.4,375.9 344.7,392.9 344.7,357.4 332,357.4 332,424.9 			"/>
			<path fill="#FFFF33" d="M382.5,416.4c-0.6,0-1.1-0.1-1.5-0.4c-0.4-0.2-0.6-0.6-0.8-1.1s-0.2-0.9-0.3-1.3c0-0.4-0.1-0.8-0.1-1.4
				v-24.2c0-2.5,0.9-3.7,2.6-3.7c1.9,0,2.9,1.2,2.9,3.7v24.2C385.3,415,384.4,416.4,382.5,416.4L382.5,416.4z M369.4,419.4
				c1.4,2.1,3.3,3.8,5.6,4.9c2.3,1.1,4.8,1.7,7.5,1.7c4.2,0,7.8-1.3,10.9-3.8c3-2.6,4.5-5.9,4.5-10v-20.8c0-5.2-1.3-9.3-3.8-12.2
				c-2.5-2.9-6.4-4.3-11.6-4.3c-5.2,0-9.1,1.4-11.5,4.3c-2.5,2.9-3.7,6.9-3.7,12.2v20.8C367.2,414.8,367.9,417.2,369.4,419.4z"/>
			<rect x="403.1" y="357.6" fill="#FFFF33" width="12.6" height="67.5"/>
			<g id="Skola_26_">
				<g>
					<path fill="#FFFF33" d="M451.9,412.1v-23.2c0-3.7-1.4-7-4.2-9.7c-2.8-2.7-6.1-4.1-9.9-4.1c-5.4,0-9.5,1.5-12.3,4.5
						c-2.8,3-4.2,7.3-4.2,13h12.3v-2.8c0-0.8,0-1.4,0.1-1.9c0-0.5,0.2-1,0.3-1.6c0.2-0.6,0.5-1,0.9-1.3c0.4-0.3,1-0.4,1.7-0.4
						c1,0,1.7,0.4,2.2,1.3c0.4,0.9,0.6,2.1,0.6,3.9v4.1c-1.7,0.7-3.1,1.3-4.2,1.8c-1.1,0.5-2.4,1.2-3.8,1.9
						c-1.4,0.8-2.6,1.5-3.5,2.2c-0.9,0.7-1.9,1.6-2.8,2.6c-1,1-1.7,2.1-2.2,3.2c-0.5,1.1-1,2.4-1.3,3.8c-0.4,1.5-0.5,3-0.5,4.7
						c0,1.5,0.2,2.9,0.5,4.3c0.4,1.4,0.9,2.6,1.7,3.8c0.8,1.2,1.8,2.1,3.2,2.8c1.4,0.7,2.9,1.1,4.7,1.1c2.4,0,4.5-0.5,6.1-1.4
						s2.8-2.5,3.6-4.8l1.2,5.1h11.5C452.4,420.4,451.9,416.1,451.9,412.1z M439.4,414c-0.4,0.6-0.8,1-1,1.2
						c-0.2,0.3-0.6,0.5-1.1,0.9c-0.5,0.3-1,0.5-1.6,0.5c-0.9,0-1.6-0.4-2-1.1c-0.4-0.7-0.6-1.6-0.6-2.6c0-4,2.1-7.7,6.2-11V414z"/>
				</g>
			</g>
		</g>
	</g>
	<path fill="#FFFFFF" d="M341.1,523.9c-1.3,0-2.5,1.1-3.1,1.6c-1.3,1.2-3.8,3.6-6.4,7.3c-0.3,0.5-0.6,0.5-0.5,0
		c0.5-2.8,1-4.9,1.2-6.4c0.2-0.9,0.2-2.5-1-2.5l-4.9,5.4c1.2-0.4,1.3,0.2,1,2.2c-0.1,0.8-0.3,1.7-0.4,2.6c0,0,0,0-0.1,0
		c-2.9,2.4-5.8,4.7-8.7,7c0,0,0,0,0,0c-1.8,1.3-4.6,2.7-6.6,2.7c-2.9,0-4.6-1.7-4.5-6.1c0-0.6,0.1-1.1,0.1-1.5
		c0.1-0.6,0.2-0.7,0.5-0.8c2.6-0.8,5.4-1.7,8.1-3c2.2-1,5.1-2.8,5.2-5.2c0-2.1-1.8-3.4-3.6-3.4c-1.8,0-6.1,1.9-8.4,3.6
		c-0.4,0.3-1.1,0.8-1.8,1.5c0,0-0.7,0.5-2.3,0.8c-1.8,0.3-2.7-0.1-3.1-0.1c-0.8-0.2-1.5-0.8-1.5-0.8c0-0.2,0.1-0.5,0.1-0.5
		s0.2-0.9,0.2-1.4c0.1-1.7-1-3-2.6-3c-1.8,0-2.9,1.4-3.1,2.2c-0.2,0.5,0.1,0.6,0.3,0.9c0.5,0.4,1,1.1,1,2.8c0,3.3-2.7,7.6-7.6,11.9
		c-0.7,0.7-0.9,0.7-0.9-0.2c0-2.6-0.1-5.7-0.2-9.1c-0.2-4.3-1.1-8.5-3.4-8.5l-2.8,3.8c1,0,1.5,1.6,1.9,4.8
		c-3.7,3.5-7.7,6.5-11.9,9.5c-0.6,0.3-1.1,0.5-1.4,0.5c-0.6,0-0.5-1.8-0.1-4.5c1.6-8.3,3.5-18,6.4-27.3l-6.3,1
		c1,0.1,1.5,0.2,0.7,3.6c-0.5,2.2-1,4.3-1.4,6.4c-0.3,0.5-1.9,2.5-1.9,2.5s-1.3,1.4-2.2,2.2c-1.2,1-2.4,1.5-2.6,1.7
		c-0.8,0.4-2.3,0.4-2.3,0.4c-0.1,0-0.3,0-0.4-0.1c-0.6-2.4-2.2-4.5-5.9-4.5c-2,0-4.9,1.3-7.5,2.9c-5.7,3.5-7.6,9.2-7.7,13.3
		c0,0.4,0,0.9,0.1,1.3l-0.7,0.8l-1.2,1.1c-1.2,1-2.3,1.6-2.4,1.7c-0.2,0.1-0.4,0.1-0.6,0.2c-0.1,0-0.1,0-0.2,0
		c-2.1,0-3.9-2.5-4.9-3.9c-1.5-2.1-2.6-4.5-3.3-5.4c-0.3-0.6-0.7-1.1-1-1.5c-0.3-0.3-0.3-0.6,0.6-1.1c1.9-1.1,6-3.8,7.1-4.6
		c0.9-0.7,2.1-1.8,2.1-2.7c0-0.7-0.4-1.8-1.7-1.8c-0.5,0-0.9,0.1-1.6,0.5c-0.8,0.3-1.5,0.9-2.1,1.3c-0.5,0.3-0.6,0.7-0.5,1.3
		c0.1,0.6-0.4,2.2-2.3,3.8c-1.8,1.5-3.7,2.6-5.5,3.4c-0.9,0.3-0.9,0.2-0.8-0.6c1.3-5.7,4.3-20.3,5-22.2l-6,0.9
		c1-0.1,1.1,0.3,0.7,2.6c-1,5.6-3.7,18.7-5.4,24.9c-0.5,1.8-1.1,4.1-1.7,6.7c-0.2,0.8-0.2,1.3,0.3,1.3c0.5,0,2.4-0.9,2.9-1.2
		c0.5-0.4,1.1-0.9,1.5-2c0.6-1.8,1.2-4,1.5-5.3c0.2-1,0.5-2.1,0.7-3.1c0.2-0.7,0.2-0.9,0.7-0.9c0.8,0.1,1.4,0.6,2.4,2.8
		c1.1,2.2,2.6,4.9,3.7,6.6c1.6,2.2,3.3,3,4.7,3c1.1,0,2.6-0.4,4.3-1.6c1.5-0.9,2.8-1.9,4-3.1c0.8,2.8,3,4.4,5.9,4.4
		c1.9,0,5-1.3,7.5-2.8c5-3.2,7.5-9.2,7.5-13.5c0-0.4,0-0.8,0-1.1c3.1,0.2,6.2-2.1,8.4-4.7c-1.3,5.5-2.5,10.8-3.6,16.2
		c-0.8,3.5-0.3,6,0.8,6c0.6,0,3.6-1.8,6.8-4.7c3.8-2.7,7.6-5.5,11-8.7c0.4,4.2,0.1,9.4-0.1,12.3c0,0.6,0.1,1.1,0.7,1.1
		c0.4,0,1.2-0.6,2.2-1.4c0.8-0.6,1.5-1.3,2.6-2.4c5.2-5.3,9.4-9.9,11.1-13.5c1.7,1.1,3.6,1.3,5.8,1c-1.5,2.2-3,5.5-3,9.9
		c0,3.2,1.5,6.4,5.2,6.4c3.3,0,8.7-3,11.5-5.4c2.5-2,4.9-4,7.4-6c-0.6,3-1.4,6.4-2.5,10.5c-0.2,0.8-0.2,1.3,0.3,1.3
		c0.5,0,2.4-0.9,2.9-1.3c0.5-0.3,1.1-0.9,1.4-1.9c0.5-1.8,0.9-4,1.2-5.3c0.3-1.3,0.8-2.7,1.7-4.3c2.6-4,5-6.1,6.3-6.1
		c0.5,0,0.9,0.2,1.2,0.4c0.2,0.2,0.5,0.5,0.9,0.5c0.4,0,1.1-0.5,2.1-1.7c0.8-0.9,1.5-1.9,1.5-2.3
		C343.6,525.3,343.1,523.9,341.1,523.9 M307.6,533.2c0.5-2.2,1.5-4.1,2.4-4.8c0.9-0.9,2.3-1.8,3.6-1.8c1.9,0,2.8,1.4,2.7,2.8
		c0,0.6-0.5,1.4-1.4,2.1c-1.5,0.9-3.6,1.8-6.8,2.4C307.5,534,307.5,533.7,307.6,533.2 M255,532.3c0,3.4-0.9,8.8-3.6,11.2
		c-0.9,0.8-2.3,1.3-3.3,1.3c-2.6,0-4.7-1.7-4.7-6.2c0.1-5.4,1.8-9.1,3.6-10.7c1.1-1,2-1.4,3.4-1.4
		C254.2,526.5,255.1,529.4,255,532.3 M211.5,510.7c-1.2-1-3.7-1.5-6.7-1.5c-3.4,0-7.1,0.9-10.7,3.2c-3.8,2.4-5.3,5.2-5.2,8.4
		c0.1,3.7,3,6.3,8,8.5c3.8,1.6,8.7,3.6,8.7,8.3c0,4.7-3.4,7.5-9.7,7.5c-4.7,0-8.9-1.9-10.1-4.8c-0.4-0.9-0.7-1.8-0.6-2.3
		c0.2-0.4-0.6-0.5-1.1,0c-0.4,0.5-1.5,1.7-2.3,2.6c-0.7,0.6-1.1,1.2-1.1,1.8c0,1.1,0.9,2.4,2.4,3.3c1.8,1.2,5.6,2.2,9.4,2.2
		c3.6,0,7-1.1,10.4-2.8c4.3-2.2,8.3-5.2,8.2-9.6c-0.1-4.6-5.3-7.7-9.1-9.4c-4.4-1.9-8.3-4.1-8.3-8.3c0-3.9,3.4-6.2,7.4-6.2
		c5.2,0.1,7.6,2,7,4.6c-0.2,1,0.9,1.1,1.5,0.4c1-1,1.5-1.5,2.3-2.3c0.6-0.6,0.9-1.1,0.9-1.6C212.7,512.3,212.4,511.5,211.5,510.7
		 M407.2,524.8c-0.4,0.1-1.6,0.1-2.9,0.1h-4c-0.3,0-0.5,0-0.4-0.4c0.3-1.4,1.3-3.8,2.2-5.2c0.3-0.3-0.2-0.5-0.8-0.2
		c-0.9,0.5-2.9,1.7-3.5,2.3c-0.5,0.5-1,1.1-1.8,2.9c-0.2,0.5-0.4,0.6-0.8,0.7c-0.4,0.1-0.9,0.2-1.6,0.3c-1,0.2-3,0.9-3.5,1.3
		c-0.6,0.5-0.5,0.7,0.2,0.7h3.9c0.8,0,0.8,0.1,0.6,0.6c-0.5,1.9-1.1,4.2-1.7,6.4c-1,1-2.2,1.9-3.2,2.8c-1.6,1.4-3.3,2.8-5,4.1
		c0,0,0,0,0,0l-0.8,0.6c-1.8,1.1-4.2,2.3-5.9,2.3c-2.9,0-4.6-1.7-4.5-6.1c0-0.6,0.1-1.1,0.1-1.5c0.1-0.6,0.2-0.7,0.5-0.8
		c2.6-0.8,5.4-1.7,8.1-3c2.3-1,5.1-2.8,5.2-5.2c0-2.1-1.8-3.4-3.6-3.4c-1.8,0-6.1,1.9-8.4,3.6c-1.7,1.1-6.4,5.3-6.5,13.4
		c0,0-0.1,0.4-1.7,1.9c-1,1-2.9,2.1-2.9,2.1c-0.1,0-0.1,0-0.2,0c-0.1,0-0.1,0-0.2,0c-2.1,0-3.9-2.5-4.9-3.9
		c-1.5-2.1-2.6-4.5-3.3-5.4c-0.3-0.6-0.7-1.1-1-1.5c-0.3-0.3-0.3-0.6,0.6-1.1c1.9-1.1,6-3.8,7.1-4.6c0.9-0.7,2.1-1.8,2.1-2.7
		c0-0.7-0.4-1.8-1.7-1.8c-0.5,0-0.9,0.1-1.6,0.5c-0.8,0.3-1.5,0.9-2.1,1.3c-0.5,0.3-0.6,0.7-0.5,1.3c0.1,0.6-0.4,2.2-2.3,3.8
		c-1.8,1.5-3.7,2.6-5.5,3.4c-0.9,0.3-0.9,0.2-0.8-0.6c1.3-5.7,4.3-20.3,5-22.2l-6,0.9c1-0.1,1.1,0.3,0.7,2.6
		c-1,5.6-3.7,18.7-5.4,24.9c-0.5,1.8-1.1,4.1-1.7,6.7c-0.2,0.8-0.2,1.3,0.3,1.3c0.5,0,2.4-0.9,2.9-1.2c0.5-0.4,1.1-0.9,1.5-2
		c0.6-1.8,1.2-4,1.5-5.3c0.2-1,0.5-2.1,0.7-3.1c0.2-0.7,0.2-0.9,0.7-0.9c0.8,0.1,1.4,0.6,2.4,2.8c1.1,2.2,2.6,4.9,3.7,6.6
		c1.6,2.2,3.3,3,4.7,3c1.2,0,2.8-0.5,4.6-1.9c1.3-0.9,2.5-1.9,3.6-3.1c0.5,2.5,2,4.6,5,4.6c3.4,0,9-3.2,11.8-5.7
		c1.5-1.2,3.1-2.4,4.6-3.7c0.7-0.6,1.3-1.1,2-1.7c-0.5,2.1-0.9,4-1.2,5.4c-0.6,3.1-0.4,5.7,1.2,5.7c1.3,0,6-3.3,9.2-6.6
		c0.2-0.2-0.2-0.6-0.6-0.4c-1.1,0.8-3.6,2.6-4.7,2.6c-0.7,0-0.8-1.3-0.3-4.2c0.4-2.5,1.5-7.7,2.6-11.1c0.2-0.3,0.3-0.5,0.7-0.5
		c0.6,0,1.5-0.1,2.2-0.1c0.5,0,1.8-0.2,2.6-0.5c1.5-0.5,2.7-1.3,3.1-1.5C408,524.9,407.8,524.7,407.2,524.8 M374.1,533.2
		c0.5-2.2,1.6-4.1,2.4-4.8c0.9-0.9,2.3-1.8,3.6-1.8c1.9,0,2.8,1.4,2.7,2.8c0,0.6-0.5,1.4-1.4,2.1c-1.5,0.9-3.6,1.8-6.8,2.4
		C374,534,374,533.7,374.1,533.2"/>
	<path fill="#878787" d="M318,658h-39c-3.6,0-6.5,2.9-6.5,6.5v39c0,3.6,2.9,6.5,6.5,6.5h39c3.6,0,6.5-2.9,6.5-6.5v-39
		C324.5,660.9,321.6,658,318,658z M308.5,699.6l-9.9-9.9l-9.9,9.9l-5.6-5.6l9.9-9.9l-9.9-9.9l5.6-5.6l9.9,9.9l9.9-9.9l5.6,5.6
		l-9.9,9.9l9.9,9.9L308.5,699.6z"/>
</g>
</svg>
