<?xml version="1.0" encoding="utf-8"?>
<!-- Generator: Adobe Illustrator 18.1.1, SVG Export Plug-In . SVG Version: 6.00 Build 0)  -->
<svg version="1.1" id="Layer_1" xmlns="http://www.w3.org/2000/svg" xmlns:xlink="http://www.w3.org/1999/xlink" x="0px" y="0px"
	 width="242px" height="70px" viewBox="0 0 242 70" enable-background="new 0 0 242 70" xml:space="preserve">
<g>
	<g>
		<path fill="#FFFFFF" d="M90.8,64.9c0-2.9,1.5-4.6,3.7-4.6c2.1,0,3.7,1.8,3.7,4.6c0,2.9-1.5,4.6-3.7,4.6
			C92.3,69.6,90.8,67.8,90.8,64.9z M96.9,64.9c0-2.4-1-3.7-2.5-3.7c-1.5,0-2.5,1.3-2.5,3.7c0,2.4,1,3.7,2.5,3.7
			C95.9,68.6,96.9,67.3,96.9,64.9z M93,58h1v1.2h-1V58z M95,58h1v1.2h-1V58z"/>
		<path fill="#FFFFFF" d="M99.6,60.5h3c2,0,3,1,3,2.7c0,1.5-1.1,2.6-3.1,2.6h-1.9v3.6h-1.1V60.5z M102.4,64.9c1.3,0,2-0.6,2-1.8
			c0-1-0.7-1.7-1.9-1.7h-1.8v3.5H102.4z"/>
		<path fill="#FFFFFF" d="M106.9,60.5h3c2,0,3,1,3,2.7c0,1.5-1.1,2.6-3.1,2.6h-1.9v3.6h-1.1V60.5z M109.7,64.9c1.3,0,2-0.6,2-1.8
			c0-1-0.7-1.7-1.9-1.7h-1.8v3.5H109.7z"/>
		<path fill="#FFFFFF" d="M114.2,60.5h5.7v0.9h-4.6v2.9h3.6v0.9h-3.6v3.4h4.7v0.9h-5.8V60.5z"/>
		<path fill="#FFFFFF" d="M121.1,60.5h1.4l4.2,7.3v-7.3h0.9v8.9h-1.1l-4.6-7.9v7.9h-0.9V60.5z"/>
		<path fill="#FFFFFF" d="M133.9,66.7c0.4,1.2,1.3,1.9,2.5,1.9c1.3,0,2.1-0.7,2.1-1.5c0-1.1-0.7-1.4-2.2-1.8c-0.8-0.2-1.7-0.3-2.4-1
			c-0.4-0.4-0.6-0.9-0.6-1.5c0-1.5,1.2-2.6,3-2.6c1.7,0,2.8,0.8,3.3,2.2l-1,0.2c-0.3-1-1.1-1.6-2.2-1.6c-1.1,0-1.8,0.6-1.8,1.5
			c0,0.4,0.2,0.8,0.5,1c0.6,0.4,1.2,0.5,1.9,0.7c1.9,0.6,2.9,1.2,2.9,2.6c0,1.5-1.3,2.6-3.2,2.6c-1.9,0-3.1-0.9-3.6-2.6L133.9,66.7z
			"/>
		<path fill="#FFFFFF" d="M141.3,60.5h1.1v5.1l4-5.1h1.2l-2.4,3l3.1,5.9h-1.1l-2.7-5.2l-2.1,2.6v2.6h-1.1V60.5z"/>
		<path fill="#FFFFFF" d="M148,64.9c0-2.9,1.5-4.6,3.7-4.6s3.7,1.8,3.7,4.6c0,2.9-1.5,4.6-3.7,4.6S148,67.8,148,64.9z M154.1,64.9
			c0-2.4-1-3.7-2.5-3.7c-1.5,0-2.5,1.3-2.5,3.7c0,2.4,1,3.7,2.5,3.7S154.1,67.3,154.1,64.9z"/>
		<path fill="#FFFFFF" d="M156.8,60.5h1.1v7.9h4.1v1h-5.2V60.5z"/>
		<path fill="#FFFFFF" d="M162.8,60.5h1.1v8.9h-1.1V60.5z"/>
		<path fill="#FFFFFF" d="M165.9,60.5h1.4l4.2,7.3v-7.3h0.9v8.9h-1.1l-4.6-7.9v7.9h-0.9V60.5z"/>
		<path fill="#FFFFFF" d="M174.5,60.5h5.7v0.9h-4.6v2.9h3.6v0.9h-3.6v4.3h-1.1V60.5z"/>
		<path fill="#FFFFFF" d="M180.4,64.9c0-2.9,1.5-4.6,3.7-4.6c2.1,0,3.7,1.8,3.7,4.6c0,2.9-1.5,4.6-3.7,4.6
			C181.9,69.6,180.4,67.8,180.4,64.9z M186.5,64.9c0-2.4-1-3.7-2.5-3.7c-1.5,0-2.5,1.3-2.5,3.7c0,2.4,1,3.7,2.5,3.7
			C185.6,68.6,186.5,67.3,186.5,64.9z"/>
		<path fill="#FFFFFF" d="M189.2,60.5h3.1c2.1,0,3.2,0.9,3.2,2.5c0,1.1-0.6,1.8-1.7,2.3l1.8,4.1h-1.1l-1.7-3.9h-2.6v3.9h-1.1V60.5z
			 M190.3,61.4v3.2h1.9c1.5,0,2.2-0.5,2.2-1.6c0-1-0.7-1.6-2.1-1.6H190.3z"/>
		<path fill="#FFFFFF" d="M197,60.5h1.6l2.7,7.5l2.7-7.5h1.6v8.9h-1v-7.9l-2.9,7.9h-0.8l-2.9-8v8H197V60.5z"/>
		<path fill="#FFFFFF" d="M209.5,60.5h1.3l2.9,8.9h-1.1l-0.9-2.7h-3.4l-0.8,2.7h-1L209.5,60.5z M211.5,65.9l-1.4-4.4l-1.4,4.4H211.5
			z"/>
		<path fill="#FFFFFF" d="M216.7,69.4h-1.1v-8h-2.5v-0.9h6.1v0.9h-2.5V69.4z"/>
		<path fill="#FFFFFF" d="M220.2,60.5h1.1v8.9h-1.1V60.5z"/>
		<path fill="#FFFFFF" d="M222.8,64.9c0-2.9,1.5-4.6,3.7-4.6c2.1,0,3.7,1.8,3.7,4.6c0,2.9-1.5,4.6-3.7,4.6
			C224.3,69.6,222.8,67.8,222.8,64.9z M228.9,64.9c0-2.4-1-3.7-2.5-3.7c-1.5,0-2.5,1.3-2.5,3.7c0,2.4,1,3.7,2.5,3.7
			C227.9,68.6,228.9,67.3,228.9,64.9z"/>
		<path fill="#FFFFFF" d="M231.6,60.5h1.4l4.2,7.3v-7.3h0.9v8.9H237l-4.6-7.9v7.9h-0.9V60.5z"/>
	</g>
	<g>
		<g id="Välja_26_">
			<g>
				<polygon fill="#FFFFFF" points="19.7,1.6 14.7,32.6 10.2,1.6 0.4,1.6 9.8,52.6 19.2,52.6 29.3,1.6 				"/>
			</g>
		</g>
		<g>
			<circle fill="#FFFFFF" cx="37.1" cy="6.7" r="5.1"/>
			<circle fill="#FFFFFF" cx="49.2" cy="6.7" r="5.1"/>
			<path fill="#FFFFFF" d="M44.1,45.2c-0.2,0.2-0.4,0.4-0.8,0.7c-0.4,0.3-0.8,0.4-1.2,0.4c-0.7,0-1.2-0.3-1.5-0.8
				c-0.3-0.5-0.4-1.2-0.4-1.9c0-3,1.6-5.8,4.7-8.3v9.1C44.5,44.7,44.2,45,44.1,45.2z M55.5,52.6c-0.8-3.5-1.2-6.8-1.2-9.8V25.2
				c0-2.8-1.1-5.3-3.2-7.3c-2.1-2.1-4.6-3.1-7.5-3.1c-4.1,0-7.2,1.1-9.3,3.4c-2.1,2.3-3.2,5.5-3.2,9.8h9.3v-2.1c0-0.6,0-1.1,0.1-1.4
				c0-0.3,0.1-0.7,0.3-1.2c0.1-0.4,0.4-0.8,0.7-1c0.3-0.2,0.8-0.3,1.3-0.3c0.8,0,1.3,0.3,1.6,1c0.3,0.6,0.5,1.6,0.5,2.9V29
				c-1.3,0.5-2.4,1-3.2,1.4c-0.9,0.4-1.8,0.9-2.9,1.4c-1.1,0.6-2,1.1-2.6,1.7c-0.7,0.5-1.4,1.2-2.1,2c-0.7,0.8-1.3,1.6-1.7,2.4
				c-0.4,0.8-0.7,1.8-1,2.9c-0.3,1.1-0.4,2.3-0.4,3.6c0,1.1,0.1,2.2,0.4,3.2c0.3,1,0.7,2,1.3,2.9c0.6,0.9,1.4,1.6,2.4,2.1
				c1,0.5,2.2,0.8,3.6,0.8c1.9,0,3.4-0.3,4.6-1c1.2-0.7,2.1-1.9,2.7-3.6l0.9,3.8H55.5z"/>
		</g>
		<rect x="59.2" y="1.6" fill="#FFFFFF" width="9.6" height="51"/>
		<g>
			<circle fill="#FFFF33" cx="79.9" cy="6.7" r="5.1"/>
			<path fill="#FFFFFF" d="M75.9,61.5c2.9,0,5.2-0.9,6.7-2.6c1.6-1.7,2.3-4,2.3-7V15.7h-9.5v35.4c0,2.1-0.7,3.1-2.2,3.1
				c-0.6,0-1.4-0.2-2.5-0.5v6.9C72.8,61.2,74.5,61.5,75.9,61.5L75.9,61.5z"/>
		</g>
		<path fill="#FFFFFF" d="M102.4,45.2c-0.2,0.2-0.4,0.4-0.8,0.7c-0.4,0.3-0.8,0.4-1.2,0.4c-0.7,0-1.2-0.3-1.5-0.8
			c-0.3-0.5-0.4-1.2-0.4-1.9c0-3,1.6-5.8,4.7-8.3v9.1C102.8,44.7,102.6,45,102.4,45.2z M113.8,52.6c-0.8-3.5-1.2-6.8-1.2-9.8V25.2
			c0-2.8-1.1-5.3-3.2-7.3c-2.1-2.1-4.6-3.1-7.5-3.1c-4.1,0-7.2,1.1-9.3,3.4c-2.1,2.3-3.2,5.5-3.2,9.8h9.3v-2.1c0-0.6,0-1.1,0.1-1.4
			c0-0.3,0.1-0.7,0.3-1.2c0.1-0.4,0.4-0.8,0.7-1c0.3-0.2,0.8-0.3,1.3-0.3c0.8,0,1.3,0.3,1.6,1c0.3,0.6,0.5,1.6,0.5,2.9V29
			c-1.3,0.5-2.4,1-3.2,1.4c-0.9,0.4-1.8,0.9-2.9,1.4c-1.1,0.6-2,1.1-2.6,1.7c-0.7,0.5-1.4,1.2-2.1,2c-0.7,0.8-1.3,1.6-1.7,2.4
			c-0.4,0.8-0.7,1.8-1,2.9c-0.3,1.1-0.4,2.3-0.4,3.6c0,1.1,0.1,2.2,0.4,3.2c0.3,1,0.7,2,1.3,2.9c0.6,0.9,1.4,1.6,2.4,2.1
			c1,0.5,2.2,0.8,3.6,0.8c1.9,0,3.4-0.3,4.6-1c1.2-0.7,2.1-1.9,2.7-3.6l0.9,3.8H113.8z"/>
		<path fill="#FFFF33" d="M119.4,43.3c0.6,1.8,1.5,3.5,2.6,5c1.1,1.5,2.6,2.7,4.4,3.5c1.8,0.9,3.9,1.3,6.3,1.3
			c3.6,0,6.7-1.1,9.3-3.4c2.6-2.3,3.8-5.2,3.8-8.8c0-1.9-0.2-3.7-0.7-5.3c-0.4-1.6-1.1-3.2-2-4.6c-0.9-1.4-1.8-2.7-2.8-3.8
			c-1-1.1-2.2-2.3-3.7-3.6c-0.4-0.4-1.1-0.9-2-1.7c-0.9-0.8-1.7-1.4-2.3-1.9c-0.6-0.5-1.2-1.2-1.9-2c-0.7-0.8-1.2-1.7-1.5-2.6
			c-0.3-0.9-0.5-1.9-0.5-3c0-1.2,0.3-2.3,0.9-3.1c0.6-0.9,1.4-1.3,2.6-1.3c0.6,0,1.2,0.2,1.6,0.6s0.8,0.9,1,1.5
			c0.2,0.6,0.4,1.2,0.5,1.9c0.1,0.6,0.1,1.3,0.1,2c0,0.3,0,0.6,0,1.1c0,0.4,0,0.8,0,1l10.7-1.5c0-0.3,0-0.6,0-0.9l0-0.4
			c0-3.6-1.3-6.7-3.8-9.3c-2.5-2.6-5.6-3.9-9.2-3.9c-4.3,0-7.8,1.2-10.5,3.6c-2.6,2.4-3.9,5.7-3.9,9.8c0,1.4,0.2,2.8,0.5,4
			c0.3,1.3,0.7,2.3,1.2,3.2c0.5,0.9,1.1,1.8,1.9,2.8c0.8,1,1.5,1.7,2.1,2.3c0.6,0.6,1.4,1.3,2.4,2.1l3.2,2.7c4,3.5,6,7.1,6,10.7
			c0,2.6-1,3.9-3.1,3.9c-0.7,0-1.3-0.2-1.8-0.6c-0.5-0.4-0.9-0.9-1.2-1.5c-0.3-0.6-0.5-1.4-0.7-2.3c-0.2-0.9-0.3-1.8-0.3-2.6
			c0-0.8-0.1-1.7-0.1-2.7l-10.5,2C118.5,39.5,118.8,41.5,119.4,43.3z"/>
		<polygon fill="#FFFF33" points="159.3,52.6 159.3,38.3 160.5,36.2 165.4,52.6 175.3,52.6 166.2,31.3 175.3,15.7 165.1,15.7 
			159.3,28.5 159.3,1.6 149.7,1.6 149.7,52.6 		"/>
		<path fill="#FFFF33" d="M187.8,46.3c-0.5,0-0.8-0.1-1.1-0.3c-0.3-0.2-0.5-0.5-0.6-0.8s-0.2-0.7-0.2-1c0-0.3,0-0.6,0-1V24.8
			c0-1.9,0.7-2.8,2-2.8c1.5,0,2.2,0.9,2.2,2.8v18.3C190,45.2,189.3,46.3,187.8,46.3L187.8,46.3z M177.9,48.5
			c1.1,1.6,2.5,2.8,4.2,3.7c1.7,0.8,3.6,1.3,5.7,1.3c3.2,0,5.9-1,8.2-2.9c2.3-1.9,3.4-4.4,3.4-7.5V27.3c0-3.9-1-7-2.9-9.2
			c-1.9-2.2-4.8-3.3-8.8-3.3c-3.9,0-6.9,1.1-8.7,3.3c-1.9,2.2-2.8,5.2-2.8,9.2V43C176.3,45.1,176.8,46.9,177.9,48.5z"/>
		<rect x="203.4" y="1.8" fill="#FFFF33" width="9.6" height="51"/>
		<g id="Skola_26_">
			<g>
				<path fill="#FFFF33" d="M240.3,43V25.4c0-2.8-1.1-5.3-3.2-7.3c-2.1-2.1-4.6-3.1-7.5-3.1c-4.1,0-7.2,1.1-9.3,3.4
					c-2.1,2.3-3.2,5.5-3.2,9.8h9.3v-2.1c0-0.6,0-1.1,0.1-1.4c0-0.3,0.1-0.7,0.3-1.2c0.1-0.4,0.4-0.8,0.7-1c0.3-0.2,0.8-0.3,1.3-0.3
					c0.8,0,1.3,0.3,1.6,1c0.3,0.6,0.5,1.6,0.5,2.9v3.1c-1.3,0.5-2.4,1-3.2,1.4c-0.9,0.4-1.8,0.9-2.9,1.4c-1.1,0.6-2,1.1-2.6,1.7
					c-0.7,0.5-1.4,1.2-2.1,2c-0.7,0.8-1.3,1.6-1.7,2.4c-0.4,0.8-0.7,1.8-1,2.9c-0.3,1.1-0.4,2.3-0.4,3.6c0,1.1,0.1,2.2,0.4,3.2
					c0.3,1,0.7,2,1.3,2.9c0.6,0.9,1.4,1.6,2.4,2.1c1,0.5,2.2,0.8,3.6,0.8c1.9,0,3.4-0.3,4.6-1s2.1-1.9,2.7-3.6l0.9,3.8h8.7
					C240.7,49.3,240.3,46,240.3,43z M230.8,44.5c-0.3,0.4-0.6,0.7-0.8,0.9c-0.2,0.2-0.4,0.4-0.8,0.7c-0.4,0.3-0.8,0.4-1.2,0.4
					c-0.7,0-1.2-0.3-1.5-0.8c-0.3-0.5-0.4-1.2-0.4-1.9c0-3,1.6-5.8,4.7-8.3V44.5z"/>
			</g>
		</g>
	</g>
</g>
</svg>
